<svg width="22" height="20" viewBox="0 0 22 20" fill="none" xmlns="http://www.w3.org/2000/svg">
<path d="M10.2796 0.918174C10.5795 -0.00210297 11.8814 -0.00210214 12.1812 0.918175L13.9323 6.29257C14.0664 6.7042 14.4502 6.98278 14.8831 6.98278H20.5439C21.5133 6.98278 21.9156 8.22381 21.1306 8.79257L16.5557 12.1072C16.2043 12.3619 16.0572 12.8141 16.1916 13.2268L17.9402 18.5934C18.2402 19.5143 17.1869 20.2812 16.4027 19.713L11.8171 16.3907C11.4671 16.137 10.9937 16.137 10.6437 16.3907L6.05816 19.713C5.2739 20.2812 4.22061 19.5143 4.52063 18.5934L6.2692 13.2268C6.40366 12.8141 6.25658 12.3619 5.90512 12.1072L1.33025 8.79257C0.545238 8.22381 0.947569 6.98278 1.91696 6.98278H7.57772C8.01064 6.98278 8.39441 6.7042 8.52852 6.29257L10.2796 0.918174Z" fill="#070707"/>
</svg>
